# xmcd
#
# Track frame offsets:
#	150
#	15906
#	31022
#	55177
#	76065
#	94443
#	113115
#	136353
#	159175
#	177915
#	195087
#	216116
#	231711
#	247651
#	266952
#	277560
#
# Disc length: 3925
#
# Revision: 1
# Processed by: cddbd v1.5.1PL0 Copyright (c) Steve Scherf et al.
# Submitted via: CDex 1.50beta10
# Normalized: r0:TDELIM( - )
#
DISCID=c20f5310
DTITLE=Various Artist - JAZZFM THE ALBUM [CDTwo)
DYEAR=2003
DGENRE=Jazz
TTITLE0=Earth Wind and Fire - After the love has gone
TTITLE1=Mica Paris and Will Downing - Where is the love
TTITLE2=Fat Larry's Band - Zoom
TTITLE3=Nathan Haines - FM
TTITLE4=Lonnie Hill - Galveston Bay
TTITLE5=Alexander O'Neal - You don't know me
TTITLE6=Marilyn Scott - You don't know what love is
TTITLE7=Musiq - Don't change
TTITLE8=Tasha's World - Breakfast London Style
TTITLE9=Erykah Badu - On and On
TTITLE10=TLC - Waterfalls
TTITLE11=India Arie - The Truth
TTITLE12=Ive Mendes - Natural High
TTITLE13=Gwyn and Will - Beguiling Eyes
TTITLE14=Eva Cassidy - It don't mean a thing
TTITLE15=Brenda Russell - It's a Jazz Day
EXTD=YEAR: 2003
EXTT0=
EXTT1=
EXTT2=
EXTT3=
EXTT4=
EXTT5=
EXTT6=
EXTT7=
EXTT8=
EXTT9=
EXTT10=
EXTT11=
EXTT12=
EXTT13=
EXTT14=
EXTT15=
PLAYORDER=
